<?xml version="1.0" encoding="UTF-8"?>
<svg id="Camada_1" xmlns="http://www.w3.org/2000/svg" version="1.1" viewBox="0 0 1398.35 287">
  <!-- Generator: Adobe Illustrator 29.1.0, SVG Export Plug-In . SVG Version: 2.1.0 Build 142)  -->
  <defs>
    <style>
      .st0 {
        fill: #fff;
      }
    </style>
  </defs>
  <g>
    <g>
      <path class="st0" d="M391.07,126.54v49.98c-8.58-10.47-16.27-17.66-23.07-21.56-6.69-4.01-14.54-6.02-23.57-6.02-14.15,0-25.91,4.96-35.27,14.88-9.36,9.92-14.04,22.34-14.04,37.28s4.51,27.8,13.54,37.61c9.13,9.81,20.78,14.71,34.93,14.71,9.03,0,16.99-1.95,23.9-5.85,6.69-3.79,14.54-11.14,23.57-22.07v49.64c-15.27,7.91-30.53,11.87-45.8,11.87-25.18,0-46.25-8.13-63.18-24.41-16.94-16.38-25.41-36.72-25.41-61.01s8.58-44.8,25.74-61.51c17.16-16.71,38.22-25.07,63.18-25.07,16.05,0,31.2,3.85,45.47,11.53Z"/>
      <path class="st0" d="M537.6,119.52h37.78v162.81h-37.78v-17.05c-15.49,14.49-32.15,21.73-49.98,21.73-22.51,0-41.12-8.13-55.83-24.41-14.6-16.6-21.9-37.33-21.9-62.18s7.3-44.74,21.9-61.01c14.6-16.27,32.87-24.4,54.83-24.4,18.94,0,35.94,7.8,50.98,23.4v-18.89ZM448.34,200.42c0,15.6,4.18,28.31,12.54,38.11,8.58,9.92,19.39,14.88,32.43,14.88,13.93,0,25.18-4.79,33.76-14.38,8.58-9.92,12.87-22.51,12.87-37.78s-4.29-27.86-12.87-37.78c-8.58-9.7-19.72-14.54-33.43-14.54-12.93,0-23.74,4.9-32.43,14.71-8.58,9.92-12.87,22.18-12.87,36.77Z"/>
      <path class="st0" d="M732.94,0h37.78v282.32h-37.78v-17.05c-14.82,14.49-31.59,21.73-50.31,21.73-22.29,0-40.79-8.13-55.5-24.41-14.6-16.6-21.9-37.33-21.9-62.18s7.3-44.57,21.9-60.84c14.48-16.38,32.7-24.57,54.66-24.57,19.06,0,36.11,7.8,51.15,23.4V0ZM643.68,200.42c0,15.6,4.18,28.31,12.53,38.11,8.58,9.92,19.39,14.88,32.43,14.88,13.93,0,25.18-4.79,33.76-14.38,8.58-9.92,12.87-22.51,12.87-37.78s-4.29-27.86-12.87-37.78c-8.58-9.7-19.72-14.54-33.43-14.54-12.93,0-23.74,4.9-32.43,14.71-8.58,9.92-12.87,22.18-12.87,36.77Z"/>
      <path class="st0" d="M956.53,209.78h-116.67c1,13.37,5.35,24.02,13.04,31.93,7.69,7.8,17.55,11.7,29.59,11.7,9.36,0,17.1-2.23,23.23-6.69,6.02-4.46,12.87-12.7,20.56-24.74l31.76,17.72c-4.91,8.36-10.09,15.52-15.54,21.48-5.46,5.96-11.31,10.86-17.55,14.71-6.24,3.84-12.98,6.66-20.23,8.44-7.25,1.78-15.1,2.68-23.57,2.68-24.3,0-43.8-7.8-58.51-23.4-14.71-15.71-22.06-36.55-22.06-62.52s7.13-46.58,21.4-62.52c14.37-15.71,33.43-23.57,57.17-23.57s42.9,7.63,56.83,22.9c13.82,15.16,20.73,36.16,20.73,63.02l-.17,8.86ZM917.91,179.02c-5.24-20.06-17.89-30.09-37.94-30.09-4.57,0-8.86.7-12.87,2.09-4.01,1.39-7.66,3.4-10.95,6.02-3.29,2.62-6.1,5.77-8.44,9.44-2.34,3.68-4.12,7.86-5.35,12.54h75.55Z"/>
    </g>
    <g>
      <polygon class="st0" points="146.25 49.32 127.7 8.02 0 282.32 40.63 282.32 146.25 49.32"/>
      <polygon class="st0" points="156.1 71.25 135.95 115.7 165.32 183.03 105.42 183.03 88.83 219.64 181.2 219.64 208.27 282.32 250.9 282.32 156.1 71.25"/>
    </g>
  </g>
  <path class="st0" d="M987.72,119.52h37.61v15.04c7.24-7.58,13.43-12.7,18.55-15.38,5.46-2.78,12.31-4.18,20.56-4.18,18.39,0,32.93,8.02,43.63,24.07,11.81-16.05,27.8-24.07,47.97-24.07,36.66,0,54.99,22.23,54.99,66.7v100.63h-37.78v-90.43c0-15.6-1.9-26.63-5.68-33.1-3.9-6.57-10.31-9.86-19.22-9.86-10.36,0-17.91,3.9-22.65,11.7-4.74,7.8-7.1,20.34-7.1,37.61v84.08h-37.78v-89.93c0-28.97-8.36-43.46-25.07-43.46-10.59,0-18.3,3.96-23.15,11.87-4.85,7.91-7.27,20.39-7.27,37.44v84.08h-37.61V119.52Z"/>
  <path class="st0" d="M1396.85,209.78h-116.67c1,13.37,5.35,24.02,13.04,31.93,7.69,7.8,17.55,11.7,29.59,11.7,9.36,0,17.1-2.23,23.23-6.69,6.02-4.46,12.87-12.7,20.56-24.74l31.76,17.72c-4.91,8.36-10.09,15.52-15.54,21.48-5.46,5.96-11.31,10.86-17.55,14.71-6.24,3.84-12.98,6.66-20.23,8.44-7.25,1.78-15.1,2.68-23.57,2.68-24.3,0-43.8-7.8-58.51-23.4-14.71-15.71-22.06-36.55-22.06-62.52s7.13-46.58,21.4-62.52c14.37-15.71,33.43-23.57,57.17-23.57s42.9,7.63,56.83,22.9c13.82,15.16,20.73,36.16,20.73,63.02l-.17,8.86ZM1358.23,179.02c-5.24-20.06-17.89-30.09-37.94-30.09-4.57,0-8.86.7-12.87,2.09-4.01,1.39-7.66,3.4-10.95,6.02-3.29,2.62-6.1,5.77-8.44,9.44-2.34,3.68-4.12,7.86-5.35,12.54h75.55Z"/>
</svg>